<svg version="1.1" width="126" height="55" viewBox="-1 -1 126 55" xmlns="http://www.w3.org/2000/svg" xmlns:xlink="http://www.w3.org/1999/xlink">
  <defs>
    <linearGradient id="grad_1" x1="13.0181" y1="75.0693" x2="133.0176" y2="75.0693" gradientUnits="userSpaceOnUse">
      <stop offset="0" stop-color="#27AAE1"/>
      <stop offset="1" stop-color="#115489"/>
    </linearGradient>
    <linearGradient id="grad_2" x1="17.5205" y1="75.0693" x2="128.5137" y2="75.0693" gradientUnits="userSpaceOnUse">
      <stop offset="0" stop-color="#2F7EBA"/>
      <stop offset="0.506" stop-color="#3F9DD6"/>
      <stop offset="1" stop-color="#3E97D1"/>
    </linearGradient>
  </defs>
  <!-- Exported by Scratch - http://scratch.mit.edu/ -->
  <g id="ID0.0125158685259521" transform="matrix(0.8075828552246094, 0, 0, 0.8075828552246094, 0, 0)">
    <path id="ID0.0034902910701930523" fill="url(#grad_1)" d="M 106.874 42.787 L 39.161 42.787 C 24.745 42.787 13.018 54.515 13.018 68.930 C 13.018 83.347 24.746 95.074 39.161 95.074 L 106.874 95.074 C 121.289 95.074 133.018 83.346 133.018 68.930 C 133.018 54.515 121.289 42.787 106.874 42.787 Z " transform="matrix(1.0333943367004395, 0, 0, 1.0333943367004395, -13, -43.95)"/>
    <path id="ID0.7990898191928864" fill="url(#grad_2)" d="M 128.514 68.930 C 128.514 80.882 118.826 90.571 106.874 90.571 L 39.161 90.571 C 27.209 90.571 17.520 80.882 17.520 68.930 L 17.520 68.930 C 17.520 56.979 27.209 47.290 39.161 47.290 L 106.874 47.290 C 118.826 47.290 128.514 56.979 128.514 68.930 L 128.514 68.930 Z " transform="matrix(1.0333943367004395, 0, 0, 1.0333943367004395, -13, -43.95)"/>
  </g>
  <g id="ID0.7915165354497731" transform="matrix(0.8075828552246094, 0, 0, 0.8075828552246094, 0, 0)">
    <g id="ID0.42775065964087844">
      <g id="ID0.6343233711086214">
        <path id="ID0.12705623172223568" fill="#00CCCC" d="M 61.360 49.730 C 60.570 50.530 59.510 51.390 58.130 52.130 C 58.330 53.710 58.560 55.520 58.830 57.550 C 59.230 58.590 59.660 59.810 60.120 61.290 C 60.310 61.920 60.450 62.560 60.530 63.220 C 61.120 67.980 59.190 72.610 55.360 75.580 C 52.630 77.700 49.340 78.830 45.840 78.830 C 43.170 78.830 40.700 78.160 38.600 76.910 C 35.640 78 32.440 78.560 29.030 78.560 C 24.090 78.560 19.250 77.370 14.670 75.010 C 10.500 72.950 7.100 69.570 4.550 64.980 C 1.530 59.530 0 52.970 0 45.480 C 0 43.300 0.120 41.380 0.380 39.620 C 0.550 38.420 0.770 36.710 1.060 34.490 C 1.180 33.540 1.430 32.610 1.790 31.730 C 2.180 29.850 2.770 27.520 3.580 24.650 C 3.690 24.250 3.830 23.860 3.980 23.470 C 7.390 15.110 12.280 9.080 18.520 5.560 C 23.280 2.870 28.390 1.500 33.700 1.500 C 35.790 1.500 37.820 1.710 39.790 2.140 C 41.830 0.840 44.440 0 47.680 0 C 49.500 0 51.240 0.370 52.870 1.090 C 57.070 2.880 59.970 6.580 60.660 11.080 C 60.680 11.220 60.700 11.360 60.720 11.500 C 61 13.920 60.860 16.920 60.270 21.160 C 60.230 23.120 59.880 25.200 59.200 27.500 C 59.070 27.940 58.910 28.370 58.720 28.790 C 59.380 29.180 60 29.640 60.580 30.170 C 63.550 32.900 65.190 36.560 65.190 40.470 C 65.190 43.970 63.830 47.260 61.360 49.730 Z " transform="matrix(0.4492512345314026, 0, 0, 0.4492512345314026, 35.8, 8.95)"/>
      </g>
    </g>
    <g id="ID0.38214122224599123">
      <path id="ID0.8642155146226287" fill="#FFFFFF" d="M 53.575 41.965 C 52.988 42.552 52.080 42.874 50.848 42.932 C 51.668 42.874 50.672 42.816 47.857 42.756 C 47.681 44.399 47.299 46.626 46.713 49.442 C 47.006 51.963 47.475 55.630 48.120 60.437 C 48.530 61.316 49.029 62.695 49.616 64.571 C 49.732 65.510 49.395 66.287 48.604 66.902 C 47.812 67.518 46.888 67.826 45.833 67.826 C 44.835 67.826 44.103 67.533 43.634 66.946 C 43.574 66.361 43.399 65.451 43.106 64.219 C 42.519 62.577 42.255 61.551 42.315 61.140 C 42.373 61.140 42.315 61.024 42.138 60.788 C 38.854 65.305 34.486 67.561 29.033 67.561 C 25.807 67.561 22.670 66.769 19.621 65.186 C 17.451 64.130 15.633 62.283 14.168 59.644 C 12.057 55.832 11.001 51.112 11.001 45.482 C 11.001 43.841 11.089 42.404 11.265 41.172 C 11.441 39.940 11.675 38.182 11.969 35.895 C 12.085 35.778 12.202 35.542 12.321 35.191 C 12.614 33.491 13.229 30.969 14.169 27.627 C 16.632 21.588 19.886 17.424 23.932 15.137 C 27.040 13.377 30.294 12.498 33.696 12.498 C 37.800 12.498 41.495 13.848 44.780 16.544 C 44.838 16.486 44.896 16.223 44.956 15.752 C 44.838 14.991 44.838 13.876 44.956 12.410 C 45.189 11.472 46.100 11.002 47.683 11.002 C 47.976 11.002 48.240 11.062 48.475 11.179 C 49.236 11.473 49.676 12 49.794 12.762 C 49.970 14.287 49.794 16.838 49.266 20.414 C 49.324 21.470 49.120 22.789 48.651 24.372 C 48.005 25.076 47.272 25.428 46.452 25.428 C 45.162 25.428 44.223 24.871 43.638 23.757 C 43.638 23.347 43.550 22.819 43.374 22.173 C 42.436 20.532 41.351 19.242 40.119 18.303 C 38.535 17.072 36.365 16.368 33.609 16.193 C 28.860 15.783 25.077 17.571 22.262 21.558 C 20.268 24.491 18.861 27.979 18.040 32.026 C 17.864 32.553 17.629 33.376 17.336 34.489 C 16.690 38.066 16.368 41.292 16.368 44.164 C 16.368 48.211 17.013 52.081 18.304 55.775 C 19.066 57.945 20.619 59.705 22.966 61.052 C 25.135 62.343 27.363 62.988 29.651 62.988 C 31.175 62.988 32.700 62.666 34.225 62.020 C 35.281 61.611 36.893 59.705 39.063 56.302 C 39.532 55.541 39.913 54.661 40.207 53.663 C 40.559 52.315 40.792 51.464 40.910 51.112 C 41.379 49.999 41.628 48.576 41.658 46.846 C 41.686 45.117 41.819 43.870 42.054 43.108 C 40.588 42.991 38.594 43.108 36.073 43.460 C 32.672 43.987 30.941 44.251 30.884 44.251 C 28.949 44.251 27.571 43.490 26.750 41.965 C 26.515 41.437 26.456 40.880 26.574 40.293 C 26.807 39.590 27.306 38.974 28.069 38.446 C 29.241 37.566 31.205 37.245 33.963 37.478 C 38.126 37.889 41.468 38.093 43.990 38.093 C 44.342 38.093 45.309 38.065 46.892 38.005 C 48.300 37.947 49.355 37.947 50.059 38.005 C 50.939 37.947 51.964 38.035 53.138 38.270 C 53.841 38.916 54.193 39.648 54.193 40.468 C 54.190 41.056 53.984 41.555 53.575 41.965 Z " transform="matrix(0.4492512345314026, 0, 0, 0.4492512345314026, 35.8, 8.95)"/>
    </g>
  </g>
  <g id="ID0.4667737828567624" transform="matrix(0.8075828552246094, 0, 0, 0.8075828552246094, 0, 0)">
    <g id="ID0.5328715601935983">
      <g id="ID0.6646519578061998">
        <path id="ID0.397859675809741" fill="#00CCCC" d="M 58.862 33.884 L 58.862 38.724 C 58.862 41.594 58.362 45.674 57.292 51.564 C 56.852 54.304 56.012 57.124 54.802 59.954 C 54.782 59.994 54.762 60.024 54.752 60.064 C 52.602 64.914 49.062 69.144 44.222 72.634 C 39.062 76.344 33.722 78.224 28.332 78.224 C 26.152 78.224 24.072 77.884 22.122 77.224 C 15.212 74.994 9.752 70.754 5.902 64.624 C 5.072 63.274 4.252 61.604 3.232 59.164 C 3.212 59.104 3.192 59.054 3.162 58.994 C 1.902 55.834 1.232 53.304 1.052 51.024 C 1.022 50.634 0.912 49.694 0.552 47.854 C 0.422 47.164 0.352 46.464 0.352 45.764 L 0.352 41.484 C -0.088 39.794 -0.128 37.984 0.302 36.194 C 0.462 35.504 0.692 34.834 0.972 34.214 C 0.972 32.994 1.182 31.774 1.582 30.614 C 1.692 30.114 1.842 29.624 2.022 29.134 C 2.032 29.124 2.212 28.614 2.462 27.204 C 2.762 25.474 3.322 23.244 4.162 20.434 C 4.172 20.404 4.182 20.364 4.192 20.334 C 5.822 15.094 9.112 10.124 14.252 5.144 C 14.292 5.104 14.322 5.074 14.362 5.044 C 16.962 2.584 19.962 1.024 23.282 0.384 C 23.882 0.274 24.492 0.214 25.112 0.194 C 25.492 0.184 26.502 0.124 28.152 0.034 C 28.212 0.034 28.272 0.024 28.332 0.024 C 33.202 -0.176 37.812 0.864 42.082 3.094 C 47.012 5.614 50.912 9.404 53.682 14.364 C 54.992 16.714 56.112 19.564 57.112 23.104 C 58.282 27.114 58.862 30.644 58.862 33.884 Z " transform="matrix(0.4492512345314026, 0, 0, 0.4492512345314026, 66.8, 8.95)"/>
      </g>
    </g>
    <g id="ID0.9338630577549338">
      <path id="ID0.27022988675162196" fill="#FFFFFF" d="M 47.859 38.725 C 47.859 40.895 47.388 44.561 46.451 49.720 C 46.158 51.597 45.572 53.562 44.691 55.614 C 43.341 58.664 41.041 61.362 37.787 63.707 C 34.532 66.052 31.380 67.225 28.331 67.225 C 27.334 67.225 26.425 67.079 25.604 66.786 C 21.147 65.379 17.688 62.711 15.225 58.781 C 14.754 58.020 14.139 56.729 13.377 54.911 C 12.556 52.859 12.102 51.276 12.014 50.161 C 11.926 49.048 11.706 47.582 11.354 45.764 L 11.354 39.254 C 11.588 39.138 11.471 38.962 11.002 38.727 L 11.530 38.727 C 11.530 38.434 11.646 37.877 11.882 37.056 C 12.115 36.235 12.234 35.619 12.234 35.208 C 12.234 34.856 12.146 34.534 11.970 34.240 C 12.203 34.240 12.409 34.152 12.585 33.976 C 12.526 33.859 12.379 33.800 12.146 33.800 C 12.204 33.742 12.307 33.654 12.454 33.536 C 12.600 33.419 12.703 33.331 12.763 33.272 C 12.703 33.213 12.631 33.169 12.542 33.139 C 12.454 33.111 12.380 33.067 12.322 33.007 C 12.675 32.069 12.996 30.779 13.290 29.137 C 13.523 27.789 13.994 25.942 14.697 23.596 C 15.753 20.196 18.157 16.677 21.910 13.040 C 22.966 12.044 24.109 11.428 25.341 11.193 C 25.517 11.193 26.660 11.134 28.772 11.016 C 31.704 10.900 34.459 11.515 37.040 12.864 C 40.032 14.389 42.376 16.676 44.077 19.725 C 44.958 21.308 45.778 23.449 46.540 26.146 C 47.421 29.136 47.860 31.717 47.860 33.886 L 47.860 38.725 Z M 42.054 28.962 C 41.704 28.142 41.294 27.086 40.827 25.795 C 40.241 23.156 38.502 20.724 35.610 18.494 C 32.717 16.266 30.044 15.270 27.589 15.504 C 26.479 15.622 24.608 17.470 21.977 21.046 C 20.691 22.747 19.406 26.148 18.121 31.249 C 16.952 35.999 16.396 39.664 16.456 42.244 C 16.572 45.528 16.748 47.815 16.982 49.104 C 17.390 51.509 18.267 53.708 19.611 55.702 C 20.897 57.461 21.891 58.604 22.592 59.133 C 25.221 61.010 27.704 61.947 30.043 61.947 C 30.568 61.947 31.065 61.889 31.533 61.771 C 32.643 61.595 33.957 60.863 35.477 59.572 C 36.763 58.399 37.727 57.315 38.371 56.317 C 39.247 54.852 40.066 52.653 40.826 49.720 C 41.994 45.440 42.580 40.895 42.580 36.086 C 42.582 33.507 42.406 31.132 42.054 28.962 Z " transform="matrix(0.4492512345314026, 0, 0, 0.4492512345314026, 66.8, 8.95)"/>
    </g>
  </g>
</svg>